<svg xmlns="http://www.w3.org/2000/svg" id="icon_videofile" width="20.577" height="20.577" viewBox="0 0 20.577 20.577">
    <defs>
        <style>
            .cls-1{fill:#707070}
        </style>
    </defs>
    <path id="Path_118" d="M314.714 544.8h-16.742a1.92 1.92 0 0 0-1.918 1.917v16.743a1.92 1.92 0 0 0 1.918 1.917h16.742a1.919 1.919 0 0 0 1.917-1.917v-16.741a1.919 1.919 0 0 0-1.917-1.919zm-8.371 16.181a5.892 5.892 0 1 1 5.893-5.893 5.892 5.892 0 0 1-5.893 5.895z" class="cls-1" data-name="Path 118" transform="translate(-296.054 -544.802)"/>
    <path id="Path_119" d="M305.011 552.473a.283.283 0 0 0-.425.246v4.743a.283.283 0 0 0 .425.246l4.109-2.372a.283.283 0 0 0 0-.491z" class="cls-1" data-name="Path 119" transform="translate(-296.054 -544.802)"/>
</svg>
