<svg xmlns="http://www.w3.org/2000/svg" id="icon_emoji_pressed" width="31" height="31" viewBox="0 0 31 31">
    <defs>
        <style>
            .cls-1{fill:#9f9f9f;opacity:0}.cls-2{fill:#606d73}
        </style>
    </defs>
    <path id="Path_7" d="M15.5 0A15.5 15.5 0 1 1 0 15.5 15.5 15.5 0 0 1 15.5 0z" class="cls-1" data-name="Path 7"/>
    <path id="Path_23" d="M9.5 19A9.5 9.5 0 1 1 19 9.535 9.494 9.494 0 0 1 9.5 19zm-.46-2.853a7.028 7.028 0 0 0 3.9-.96 6.468 6.468 0 0 0 2.31-2.357.946.946 0 0 0-.951-1.42.983.983 0 0 0-.728.527 4.592 4.592 0 0 1-4.089 2.3 4.615 4.615 0 0 1-4.062-2.318.953.953 0 1 0-1.625.987 6.469 6.469 0 0 0 5.245 3.241zM6.174 5.7a1.424 1.424 0 0 0-1.433 1.425 1.44 1.44 0 0 0 1.437 1.428 1.426 1.426 0 0 0 0-2.853zm5.232 1.424a1.427 1.427 0 0 0 1.429 1.429 1.443 1.443 0 0 0 1.424-1.442A1.427 1.427 0 0 0 12.812 5.7a1.413 1.413 0 0 0-1.406 1.425z" class="cls-2" data-name="Path 23" transform="translate(6 6)"/>
</svg>
