<svg xmlns="http://www.w3.org/2000/svg" id="icon_delete_hover" width="31" height="31" viewBox="0 0 31 31">
    <defs>
        <style>
            .cls-1{fill:#97a5ac}.cls-2{fill:#9f9f9f;opacity:0}.cls-3{fill:#82929a}.cls-4{clip-path:url(#clip-path)}.cls-5{fill:#fff}
        </style>
        <clipPath id="clip-path">
            <path id="Path_29" d="M9.5 0A9.5 9.5 0 1 1 0 9.5 9.5 9.5 0 0 1 9.5 0z" class="cls-1" data-name="Path 29" transform="translate(1123 -126)"/>
        </clipPath>
    </defs>
    <path id="Path_7" d="M15.5 0A15.5 15.5 0 1 1 0 15.5 15.5 15.5 0 0 1 15.5 0z" class="cls-2" data-name="Path 7"/>
    <path id="Path_28" d="M9.5 0A9.5 9.5 0 1 1 0 9.5 9.5 9.5 0 0 1 9.5 0z" class="cls-3" data-name="Path 28" transform="translate(6 6)"/>
    <g id="Mask_Group_3" class="cls-4" data-name="Mask Group 3" transform="translate(-1117 132)">
        <g id="Group_57" data-name="Group 57" transform="translate(1126 -121.163)">
            <path id="Path_26" d="M11.847 5.7v8.242q0 1.421-1.361 1.421H2.861q-1.361 0-1.361-1.421V5.7zm-7.806 7.674v-5.59h-.816v5.589zm2.179-5.59v5.589h.817V7.784zm3.721 5.589V7.879h-.817v5.495z" class="cls-5" data-name="Path 26" transform="translate(-.079 -.3)"/>
            <path id="Path_27" d="M0 4.453V1.705h4.12V0h4.76v1.705H13v2.748z" class="cls-5" data-name="Path 27"/>
        </g>
    </g>
</svg>
