<svg xmlns="http://www.w3.org/2000/svg" id="icon_avatar" width="31" height="31" viewBox="0 0 31 31">
    <defs>
        <style>
            .cls-1{fill:#ccd2d5}.cls-2{fill:#97a5ac}
        </style>
    </defs>
    <path id="Path_7" d="M15.5 0A15.5 15.5 0 1 1 0 15.5 15.5 15.5 0 0 1 15.5 0z" class="cls-1" data-name="Path 7"/>
    <path id="Path_6" d="M21.521 23c-.653-1.632-1.958-1.958-3.1-2.447-1.142-.653-2.611-.816-2.774-1.305a2.69 2.69 0 0 1 0-2.121 6.417 6.417 0 0 0 1.305-1.468 12.1 12.1 0 0 0 1.305-5.547 5.819 5.819 0 0 0-2.121-4.568A7.328 7.328 0 0 0 13.2 4.4h-.326a4.188 4.188 0 0 0-2.937 1.142 5.238 5.238 0 0 0-1.958 4.568c0 2.121.163 4.079 1.305 5.547a6.417 6.417 0 0 0 1.305 1.468 2.09 2.09 0 0 1 0 2.121c-.163.489-1.632.816-2.774 1.305A4.907 4.907 0 0 0 4.716 23a21.232 21.232 0 0 0-.816 2.284 14.92 14.92 0 0 0 9.137 2.937 16.041 16.041 0 0 0 9.137-2.937A10.2 10.2 0 0 0 21.521 23z" class="cls-2" data-name="Path 6" transform="translate(2.463 2.779)"/>
</svg>
