<svg xmlns="http://www.w3.org/2000/svg" width="20" height="20" viewBox="0 0 20 20">
    <defs>
        <style>
            .cls-1{fill:#fff;opacity:0}.cls-2{fill:#707070}
        </style>
    </defs>
    <g id="icon_private" transform="translate(-1346 -2260)">
        <path id="Path_7" d="M10 0A10 10 0 1 1 0 10 10 10 0 0 1 10 0z" class="cls-1" data-name="Path 7" transform="translate(1346 2260)"/>
        <g id="Group_116" data-name="Group 116" transform="translate(1310.539 1918.561)">
            <path id="Path_121" d="M50.023 355.8a.765.765 0 0 0-.842-.83h-7.05c-.232 0-.438.012-.639 0h-.314a.839.839 0 0 0-.717.957c.017 1.745.006 3.49.007 5.236 0 .692.275.968.964.968h7.616c.709 0 .977-.269.978-.983v-4.06c0-.432.008-.862-.003-1.288zm-4.135 2.739a.529.529 0 0 0-.214.5c.014.241-.005.484.006.726.009.184-.04.263-.246.263-.62 0-.62.009-.62-.7a2.27 2.27 0 0 1 0-.279.535.535 0 0 0-.223-.518.926.926 0 0 1-.028-1.366.952.952 0 0 1 1.374.011.922.922 0 0 1-.049 1.36z" class="cls-2" data-name="Path 121" transform="translate(0 -4.335)"/>
            <path id="Path_122" d="M44.71 350.159v-1.537a1.929 1.929 0 1 1 3.858-.008v1.545h1.184c.007-.578.017-1.136-.015-1.691a3.5 3.5 0 0 0-.262-1.16 3.107 3.107 0 0 0-5.953 1.261v1.59z" class="cls-2" data-name="Path 122" transform="translate(-1.393)"/>
        </g>
    </g>
</svg>
