<svg xmlns="http://www.w3.org/2000/svg" id="icon_txtfile" width="20.577" height="20.577" viewBox="0 0 20.577 20.577">
    <defs>
        <style>
            .cls-1{fill:#707070}
        </style>
    </defs>
    <path id="icon_txtfile-2" d="M282.572 500.171h-12.98v.011a1.918 1.918 0 0 0-1.279.583l.564-.594-.565.6-3.871 4.077a1.912 1.912 0 0 0-.521 1.254h-.006v12.728a1.92 1.92 0 0 0 1.918 1.918h16.742a1.919 1.919 0 0 0 1.917-1.918v-16.742a1.919 1.919 0 0 0-1.919-1.917zm-17.647 5.929a.909.909 0 0 1 .24-.566l3.871-4.077a.911.911 0 0 1 .556-.263v2.932a1.976 1.976 0 0 1-1.974 1.974zm14.127 9.743h-9.7a.5.5 0 0 1 0-1h9.7a.5.5 0 0 1 0 1zm0-3.532h-9.7a.5.5 0 1 1 0-1h9.7a.5.5 0 1 1 0 1zm0-3.534h-9.7a.5.5 0 0 1 0-1h9.7a.5.5 0 0 1 0 1z" class="cls-1" data-name="icon_txtfile" transform="translate(-263.912 -500.171)"/>
</svg>
